<svg id="add-r" xmlns="http://www.w3.org/2000/svg" width="55" height="55" viewBox="0 0 55 55">
  <path id="Path_3" data-name="Path 3" d="M23.754,6a2.959,2.959,0,0,1,2.959,2.959V20.795H38.548a2.959,2.959,0,1,1,0,5.918H26.712V38.548a2.959,2.959,0,1,1-5.918,0V26.712H8.959a2.959,2.959,0,0,1,0-5.918H20.795V8.959A2.959,2.959,0,0,1,23.754,6Z" transform="translate(4 4)" fill="#00cdac"/>
  <path id="Path_4" data-name="Path 4" d="M10.25,57A8.25,8.25,0,0,1,2,48.75V10.25A8.25,8.25,0,0,1,10.25,2h38.5A8.25,8.25,0,0,1,57,10.25v38.5A8.25,8.25,0,0,1,48.75,57ZM7.5,48.75a2.75,2.75,0,0,0,2.75,2.75h38.5a2.75,2.75,0,0,0,2.75-2.75V10.25A2.75,2.75,0,0,0,48.75,7.5H10.25A2.75,2.75,0,0,0,7.5,10.25Z" transform="translate(-2 -2)" fill="#00cdac" fill-rule="evenodd"/>
</svg>
